<svg xmlns="http://www.w3.org/2000/svg" xmlns:xlink="http://www.w3.org/1999/xlink" width="500" zoomAndPan="magnify" viewBox="0 0 375 149.999998" height="200" preserveAspectRatio="xMidYMid meet" version="1.0"><defs><g/></defs><g fill="#000000" fill-opacity="1"><g transform="translate(1.126067, 88.674708)"><g><path d="M 35.890625 0 L 19.90625 0 C 14.445312 0 10.394531 -1.085938 7.75 -3.265625 C 5.113281 -5.453125 3.796875 -8.816406 3.796875 -13.359375 L 3.796875 -33.734375 C 3.796875 -38.273438 5.113281 -41.644531 7.75 -43.84375 C 10.394531 -46.050781 14.445312 -47.15625 19.90625 -47.15625 L 35.890625 -47.15625 C 36.722656 -47.15625 37.320312 -46.96875 37.6875 -46.59375 C 38.0625 -46.226562 38.25 -45.628906 38.25 -44.796875 L 38.25 -36.875 C 38.25 -36.039062 38.0625 -35.4375 37.6875 -35.0625 C 37.320312 -34.695312 36.722656 -34.515625 35.890625 -34.515625 L 22.734375 -34.515625 C 21.378906 -34.515625 20.375 -34.238281 19.71875 -33.6875 C 19.0625 -33.144531 18.734375 -32.332031 18.734375 -31.25 L 18.734375 -15.65625 C 18.734375 -14.5625 19.0625 -13.765625 19.71875 -13.265625 C 20.375 -12.765625 21.378906 -12.515625 22.734375 -12.515625 L 35.890625 -12.515625 C 36.722656 -12.515625 37.320312 -12.328125 37.6875 -11.953125 C 38.0625 -11.578125 38.25 -10.976562 38.25 -10.15625 L 38.25 -2.359375 C 38.25 -1.523438 38.0625 -0.921875 37.6875 -0.546875 C 37.320312 -0.179688 36.722656 0 35.890625 0 Z M 35.890625 0 "/></g></g></g><g fill="#000000" fill-opacity="1"><g transform="translate(42.249973, 88.674708)"><g><path d="M 5.828125 0 C 4.992188 0 4.390625 -0.179688 4.015625 -0.546875 C 3.648438 -0.921875 3.46875 -1.523438 3.46875 -2.359375 L 3.46875 -10.15625 C 3.46875 -10.976562 3.648438 -11.578125 4.015625 -11.953125 C 4.390625 -12.328125 4.992188 -12.515625 5.828125 -12.515625 L 12.3125 -12.515625 L 12.3125 -34.515625 L 5.828125 -34.515625 C 4.992188 -34.515625 4.390625 -34.695312 4.015625 -35.0625 C 3.648438 -35.4375 3.46875 -36.039062 3.46875 -36.875 L 3.46875 -44.796875 C 3.46875 -45.628906 3.648438 -46.226562 4.015625 -46.59375 C 4.390625 -46.96875 4.992188 -47.15625 5.828125 -47.15625 L 33.734375 -47.15625 C 34.566406 -47.15625 35.164062 -46.96875 35.53125 -46.59375 C 35.90625 -46.226562 36.09375 -45.628906 36.09375 -44.796875 L 36.09375 -36.875 C 36.09375 -36.039062 35.90625 -35.4375 35.53125 -35.0625 C 35.164062 -34.695312 34.566406 -34.515625 33.734375 -34.515625 L 27.375 -34.515625 L 27.375 -12.515625 L 33.734375 -12.515625 C 34.566406 -12.515625 35.164062 -12.328125 35.53125 -11.953125 C 35.90625 -11.578125 36.09375 -10.976562 36.09375 -10.15625 L 36.09375 -2.359375 C 36.09375 -1.523438 35.90625 -0.921875 35.53125 -0.546875 C 35.164062 -0.179688 34.566406 0 33.734375 0 Z M 5.828125 0 "/></g></g></g><g fill="#000000" fill-opacity="1"><g transform="translate(81.86775, 88.674708)"><g><path d="M 16.703125 0 L 6.875 0 C 6.050781 0 5.453125 -0.179688 5.078125 -0.546875 C 4.703125 -0.921875 4.515625 -1.523438 4.515625 -2.359375 L 4.515625 -44.796875 C 4.515625 -45.628906 4.703125 -46.226562 5.078125 -46.59375 C 5.453125 -46.96875 6.050781 -47.15625 6.875 -47.15625 L 13.6875 -47.15625 C 14.519531 -47.15625 15.226562 -47.023438 15.8125 -46.765625 C 16.40625 -46.503906 16.984375 -46.046875 17.546875 -45.390625 L 30.265625 -30.84375 L 30.265625 -44.796875 C 30.265625 -45.628906 30.445312 -46.226562 30.8125 -46.59375 C 31.1875 -46.96875 31.789062 -47.15625 32.625 -47.15625 L 42.4375 -47.15625 C 43.269531 -47.15625 43.867188 -46.96875 44.234375 -46.59375 C 44.609375 -46.226562 44.796875 -45.628906 44.796875 -44.796875 L 44.796875 -2.359375 C 44.796875 -1.523438 44.609375 -0.921875 44.234375 -0.546875 C 43.867188 -0.179688 43.269531 0 42.4375 0 L 32.625 0 C 31.789062 0 31.1875 -0.179688 30.8125 -0.546875 C 30.445312 -0.921875 30.265625 -1.523438 30.265625 -2.359375 L 30.265625 -10.421875 L 19.0625 -23.96875 L 19.0625 -2.359375 C 19.0625 -1.523438 18.875 -0.921875 18.5 -0.546875 C 18.132812 -0.179688 17.535156 0 16.703125 0 Z M 16.703125 0 "/></g></g></g><g fill="#000000" fill-opacity="1"><g transform="translate(131.177145, 88.674708)"><g><path d="M 37.265625 0 L 6.875 0 C 6.050781 0 5.453125 -0.179688 5.078125 -0.546875 C 4.703125 -0.921875 4.515625 -1.523438 4.515625 -2.359375 L 4.515625 -44.796875 C 4.515625 -45.628906 4.703125 -46.226562 5.078125 -46.59375 C 5.453125 -46.96875 6.050781 -47.15625 6.875 -47.15625 L 37.265625 -47.15625 C 38.097656 -47.15625 38.695312 -46.96875 39.0625 -46.59375 C 39.4375 -46.226562 39.625 -45.628906 39.625 -44.796875 L 39.625 -37.140625 C 39.625 -36.304688 39.4375 -35.703125 39.0625 -35.328125 C 38.695312 -34.960938 38.097656 -34.78125 37.265625 -34.78125 L 19.1875 -34.78125 L 19.1875 -29.734375 L 31.96875 -29.734375 C 32.789062 -29.734375 33.390625 -29.546875 33.765625 -29.171875 C 34.140625 -28.804688 34.328125 -28.207031 34.328125 -27.375 L 34.328125 -20.375 C 34.328125 -19.539062 34.140625 -18.9375 33.765625 -18.5625 C 33.390625 -18.195312 32.789062 -18.015625 31.96875 -18.015625 L 19.1875 -18.015625 L 19.1875 -12.375 L 37.265625 -12.375 C 38.097656 -12.375 38.695312 -12.1875 39.0625 -11.8125 C 39.4375 -11.445312 39.625 -10.847656 39.625 -10.015625 L 39.625 -2.359375 C 39.625 -1.523438 39.4375 -0.921875 39.0625 -0.546875 C 38.695312 -0.179688 38.097656 0 37.265625 0 Z M 37.265625 0 "/></g></g></g><g fill="#000000" fill-opacity="1"><g transform="translate(174.003634, 88.674708)"><g><path d="M 19.328125 -35.375 L 19.328125 -26.984375 L 24.234375 -26.984375 C 25.367188 -26.984375 26.128906 -27.273438 26.515625 -27.859375 C 26.910156 -28.453125 27.109375 -29.1875 27.109375 -30.0625 L 27.109375 -32.296875 C 27.109375 -33.160156 26.910156 -33.890625 26.515625 -34.484375 C 26.128906 -35.078125 25.367188 -35.375 24.234375 -35.375 Z M 16.96875 0 L 6.875 0 C 6.050781 0 5.453125 -0.179688 5.078125 -0.546875 C 4.703125 -0.921875 4.515625 -1.523438 4.515625 -2.359375 L 4.515625 -44.796875 C 4.515625 -45.628906 4.703125 -46.226562 5.078125 -46.59375 C 5.453125 -46.96875 6.050781 -47.15625 6.875 -47.15625 L 28.6875 -47.15625 C 33.582031 -47.15625 36.957031 -46.140625 38.8125 -44.109375 C 40.664062 -42.078125 41.59375 -39.445312 41.59375 -36.21875 L 41.59375 -33.203125 C 41.59375 -31.367188 41.316406 -29.804688 40.765625 -28.515625 C 40.222656 -27.234375 39.273438 -26.304688 37.921875 -25.734375 C 40.285156 -25.472656 42.195312 -24.515625 43.65625 -22.859375 C 45.113281 -21.203125 45.84375 -19 45.84375 -16.25 L 45.84375 -2.359375 C 45.84375 -1.523438 45.65625 -0.921875 45.28125 -0.546875 C 44.914062 -0.179688 44.316406 0 43.484375 0 L 33.34375 0 C 32.507812 0 31.90625 -0.179688 31.53125 -0.546875 C 31.164062 -0.921875 30.984375 -1.523438 30.984375 -2.359375 L 30.984375 -12.375 C 30.984375 -13.34375 30.796875 -14.054688 30.421875 -14.515625 C 30.054688 -14.972656 29.414062 -15.203125 28.5 -15.203125 L 19.328125 -15.203125 L 19.328125 -2.359375 C 19.328125 -1.523438 19.140625 -0.921875 18.765625 -0.546875 C 18.390625 -0.179688 17.789062 0 16.96875 0 Z M 16.96875 0 "/></g></g></g><g fill="#000000" fill-opacity="1"><g transform="translate(222.658186, 88.674708)"><g><path d="M 21.609375 -33.40625 L 18.53125 -23.453125 L 28.8125 -23.453125 L 25.734375 -33.40625 C 25.566406 -33.800781 25.382812 -34.082031 25.1875 -34.25 C 24.988281 -34.425781 24.757812 -34.515625 24.5 -34.515625 L 22.859375 -34.515625 C 22.597656 -34.515625 22.367188 -34.425781 22.171875 -34.25 C 21.972656 -34.082031 21.785156 -33.800781 21.609375 -33.40625 Z M 17.875 -2.359375 C 17.875 -1.523438 17.6875 -0.921875 17.3125 -0.546875 C 16.945312 -0.179688 16.351562 0 15.53125 0 L 5.890625 0 C 5.066406 0 4.46875 -0.179688 4.09375 -0.546875 C 3.71875 -0.921875 3.53125 -1.523438 3.53125 -2.359375 L 3.53125 -19.65625 C 3.53125 -20.957031 3.738281 -22.457031 4.15625 -24.15625 C 4.570312 -25.863281 5.21875 -27.851562 6.09375 -30.125 L 11.796875 -45 C 12.054688 -45.738281 12.457031 -46.28125 13 -46.625 C 13.550781 -46.976562 14.257812 -47.15625 15.125 -47.15625 L 32.75 -47.15625 C 33.582031 -47.15625 34.269531 -46.976562 34.8125 -46.625 C 35.351562 -46.28125 35.757812 -45.738281 36.03125 -45 L 41.71875 -30.125 C 42.59375 -27.851562 43.238281 -25.863281 43.65625 -24.15625 C 44.070312 -22.457031 44.28125 -20.957031 44.28125 -19.65625 L 44.28125 -2.359375 C 44.28125 -1.523438 44.09375 -0.921875 43.71875 -0.546875 C 43.351562 -0.179688 42.753906 0 41.921875 0 L 32.03125 0 C 31.15625 0 30.507812 -0.179688 30.09375 -0.546875 C 29.675781 -0.921875 29.46875 -1.523438 29.46875 -2.359375 L 29.46875 -11.53125 L 17.875 -11.53125 Z M 17.875 -2.359375 "/></g></g></g><g fill="#000000" fill-opacity="1"><g transform="translate(270.461451, 88.674708)"><g><path d="M 16.640625 0 L 6.875 0 C 6.050781 0 5.453125 -0.179688 5.078125 -0.546875 C 4.703125 -0.921875 4.515625 -1.523438 4.515625 -2.359375 L 4.515625 -44.796875 C 4.515625 -45.628906 4.703125 -46.226562 5.078125 -46.59375 C 5.453125 -46.96875 6.050781 -47.15625 6.875 -47.15625 L 17.421875 -47.15625 C 18.117188 -47.15625 18.695312 -47.003906 19.15625 -46.703125 C 19.613281 -46.398438 20.039062 -45.894531 20.4375 -45.1875 L 26.328125 -34.515625 C 26.546875 -34.117188 26.726562 -33.832031 26.875 -33.65625 C 27.03125 -33.488281 27.242188 -33.40625 27.515625 -33.40625 L 28.09375 -33.40625 C 28.363281 -33.40625 28.570312 -33.488281 28.71875 -33.65625 C 28.875 -33.832031 29.0625 -34.117188 29.28125 -34.515625 L 35.109375 -45.1875 C 35.503906 -45.894531 35.929688 -46.398438 36.390625 -46.703125 C 36.847656 -47.003906 37.425781 -47.15625 38.125 -47.15625 L 48.734375 -47.15625 C 49.554688 -47.15625 50.15625 -46.96875 50.53125 -46.59375 C 50.90625 -46.226562 51.09375 -45.628906 51.09375 -44.796875 L 51.09375 -2.359375 C 51.09375 -1.523438 50.90625 -0.921875 50.53125 -0.546875 C 50.15625 -0.179688 49.554688 0 48.734375 0 L 38.640625 0 C 37.816406 0 37.21875 -0.179688 36.84375 -0.546875 C 36.46875 -0.921875 36.28125 -1.523438 36.28125 -2.359375 L 36.28125 -25.40625 L 32.421875 -18.28125 C 32.023438 -17.53125 31.554688 -16.988281 31.015625 -16.65625 C 30.472656 -16.332031 29.785156 -16.171875 28.953125 -16.171875 L 26.328125 -16.171875 C 25.503906 -16.171875 24.816406 -16.332031 24.265625 -16.65625 C 23.722656 -16.988281 23.253906 -17.53125 22.859375 -18.28125 L 19 -25.40625 L 19 -2.359375 C 19 -1.523438 18.8125 -0.921875 18.4375 -0.546875 C 18.0625 -0.179688 17.460938 0 16.640625 0 Z M 16.640625 0 "/></g></g></g><g fill="#000000" fill-opacity="1"><g transform="translate(326.057296, 88.674708)"><g><path d="M 21.609375 -33.40625 L 18.53125 -23.453125 L 28.8125 -23.453125 L 25.734375 -33.40625 C 25.566406 -33.800781 25.382812 -34.082031 25.1875 -34.25 C 24.988281 -34.425781 24.757812 -34.515625 24.5 -34.515625 L 22.859375 -34.515625 C 22.597656 -34.515625 22.367188 -34.425781 22.171875 -34.25 C 21.972656 -34.082031 21.785156 -33.800781 21.609375 -33.40625 Z M 17.875 -2.359375 C 17.875 -1.523438 17.6875 -0.921875 17.3125 -0.546875 C 16.945312 -0.179688 16.351562 0 15.53125 0 L 5.890625 0 C 5.066406 0 4.46875 -0.179688 4.09375 -0.546875 C 3.71875 -0.921875 3.53125 -1.523438 3.53125 -2.359375 L 3.53125 -19.65625 C 3.53125 -20.957031 3.738281 -22.457031 4.15625 -24.15625 C 4.570312 -25.863281 5.21875 -27.851562 6.09375 -30.125 L 11.796875 -45 C 12.054688 -45.738281 12.457031 -46.28125 13 -46.625 C 13.550781 -46.976562 14.257812 -47.15625 15.125 -47.15625 L 32.75 -47.15625 C 33.582031 -47.15625 34.269531 -46.976562 34.8125 -46.625 C 35.351562 -46.28125 35.757812 -45.738281 36.03125 -45 L 41.71875 -30.125 C 42.59375 -27.851562 43.238281 -25.863281 43.65625 -24.15625 C 44.070312 -22.457031 44.28125 -20.957031 44.28125 -19.65625 L 44.28125 -2.359375 C 44.28125 -1.523438 44.09375 -0.921875 43.71875 -0.546875 C 43.351562 -0.179688 42.753906 0 41.921875 0 L 32.03125 0 C 31.15625 0 30.507812 -0.179688 30.09375 -0.546875 C 29.675781 -0.921875 29.46875 -1.523438 29.46875 -2.359375 L 29.46875 -11.53125 L 17.875 -11.53125 Z M 17.875 -2.359375 "/></g></g></g><g fill="#000000" fill-opacity="1"><g transform="translate(55.136606, 116.552698)"><g><path d="M 6.703125 0 L 4.828125 0 L 4.828125 -13.171875 L 0.203125 -13.171875 L 0.203125 -14.8125 L 11.3125 -14.8125 L 11.3125 -13.171875 L 6.703125 -13.171875 Z M 6.703125 0 "/></g></g></g><g fill="#000000" fill-opacity="1"><g transform="translate(83.268813, 116.552698)"><g><path d="M 10.296875 0 L 2.015625 0 L 2.015625 -14.8125 L 10.296875 -14.8125 L 10.296875 -13.171875 L 3.875 -13.171875 L 3.875 -8.546875 L 9.921875 -8.546875 L 9.921875 -6.9375 L 3.875 -6.9375 L 3.875 -1.640625 L 10.296875 -1.640625 Z M 10.296875 0 "/></g></g></g><g fill="#000000" fill-opacity="1"><g transform="translate(111.40102, 116.552698)"><g><path d="M 2.015625 0 L 2.015625 -14.8125 L 3.875 -14.8125 L 3.875 -1.65625 L 10.359375 -1.65625 L 10.359375 0 Z M 2.015625 0 "/></g></g></g><g fill="#000000" fill-opacity="1"><g transform="translate(138.86949, 116.552698)"><g><path d="M 10.296875 0 L 2.015625 0 L 2.015625 -14.8125 L 10.296875 -14.8125 L 10.296875 -13.171875 L 3.875 -13.171875 L 3.875 -8.546875 L 9.921875 -8.546875 L 9.921875 -6.9375 L 3.875 -6.9375 L 3.875 -1.640625 L 10.296875 -1.640625 Z M 10.296875 0 "/></g></g></g><g fill="#000000" fill-opacity="1"><g transform="translate(167.001697, 116.552698)"><g><path d="M 12.453125 -14.8125 L 7.15625 0 L 5.296875 0 L 0 -14.8125 L 1.953125 -14.8125 L 5.296875 -5.3125 C 5.515625 -4.707031 5.695312 -4.132812 5.84375 -3.59375 C 5.988281 -3.0625 6.113281 -2.554688 6.21875 -2.078125 C 6.320312 -2.554688 6.445312 -3.066406 6.59375 -3.609375 C 6.75 -4.148438 6.9375 -4.734375 7.15625 -5.359375 L 10.484375 -14.8125 Z M 12.453125 -14.8125 "/></g></g></g><g fill="#000000" fill-opacity="1"><g transform="translate(196.046544, 116.552698)"><g><path d="M 6.1875 0 L 0.828125 0 L 0.828125 -1.078125 L 2.578125 -1.46875 L 2.578125 -13.328125 L 0.828125 -13.734375 L 0.828125 -14.8125 L 6.1875 -14.8125 L 6.1875 -13.734375 L 4.4375 -13.328125 L 4.4375 -1.46875 L 6.1875 -1.078125 Z M 6.1875 0 "/></g></g></g><g fill="#000000" fill-opacity="1"><g transform="translate(219.677789, 116.552698)"><g><path d="M 10.421875 -3.96875 C 10.421875 -2.644531 9.941406 -1.617188 8.984375 -0.890625 C 8.023438 -0.160156 6.738281 0.203125 5.125 0.203125 C 4.289062 0.203125 3.519531 0.140625 2.8125 0.015625 C 2.113281 -0.109375 1.53125 -0.28125 1.0625 -0.5 L 1.0625 -2.28125 C 1.5625 -2.0625 2.179688 -1.859375 2.921875 -1.671875 C 3.660156 -1.492188 4.421875 -1.40625 5.203125 -1.40625 C 6.296875 -1.40625 7.125 -1.617188 7.6875 -2.046875 C 8.257812 -2.484375 8.546875 -3.066406 8.546875 -3.796875 C 8.546875 -4.285156 8.441406 -4.691406 8.234375 -5.015625 C 8.023438 -5.347656 7.664062 -5.648438 7.15625 -5.921875 C 6.644531 -6.203125 5.945312 -6.507812 5.0625 -6.84375 C 3.789062 -7.300781 2.835938 -7.863281 2.203125 -8.53125 C 1.566406 -9.195312 1.25 -10.101562 1.25 -11.25 C 1.25 -12.019531 1.445312 -12.6875 1.84375 -13.25 C 2.25 -13.820312 2.800781 -14.257812 3.5 -14.5625 C 4.207031 -14.863281 5.03125 -15.015625 5.96875 -15.015625 C 6.769531 -15.015625 7.507812 -14.9375 8.1875 -14.78125 C 8.875 -14.632812 9.5 -14.4375 10.0625 -14.1875 L 9.484375 -12.59375 C 8.972656 -12.8125 8.410156 -13 7.796875 -13.15625 C 7.191406 -13.3125 6.570312 -13.390625 5.9375 -13.390625 C 5.007812 -13.390625 4.3125 -13.191406 3.84375 -12.796875 C 3.375 -12.398438 3.140625 -11.875 3.140625 -11.21875 C 3.140625 -10.726562 3.238281 -10.316406 3.4375 -9.984375 C 3.644531 -9.648438 3.984375 -9.347656 4.453125 -9.078125 C 4.929688 -8.804688 5.570312 -8.523438 6.375 -8.234375 C 7.238281 -7.921875 7.972656 -7.578125 8.578125 -7.203125 C 9.179688 -6.835938 9.640625 -6.398438 9.953125 -5.890625 C 10.265625 -5.378906 10.421875 -4.738281 10.421875 -3.96875 Z M 10.421875 -3.96875 "/></g></g></g><g fill="#000000" fill-opacity="1"><g transform="translate(247.664816, 116.552698)"><g><path d="M 6.1875 0 L 0.828125 0 L 0.828125 -1.078125 L 2.578125 -1.46875 L 2.578125 -13.328125 L 0.828125 -13.734375 L 0.828125 -14.8125 L 6.1875 -14.8125 L 6.1875 -13.734375 L 4.4375 -13.328125 L 4.4375 -1.46875 L 6.1875 -1.078125 Z M 6.1875 0 "/></g></g></g><g fill="#000000" fill-opacity="1"><g transform="translate(271.296072, 116.552698)"><g><path d="M 14.9375 -7.421875 C 14.9375 -5.890625 14.675781 -4.550781 14.15625 -3.40625 C 13.644531 -2.269531 12.878906 -1.382812 11.859375 -0.75 C 10.835938 -0.113281 9.585938 0.203125 8.109375 0.203125 C 6.578125 0.203125 5.300781 -0.113281 4.28125 -0.75 C 3.269531 -1.382812 2.515625 -2.273438 2.015625 -3.421875 C 1.515625 -4.566406 1.265625 -5.910156 1.265625 -7.453125 C 1.265625 -8.960938 1.515625 -10.285156 2.015625 -11.421875 C 2.515625 -12.566406 3.269531 -13.457031 4.28125 -14.09375 C 5.300781 -14.726562 6.585938 -15.046875 8.140625 -15.046875 C 9.617188 -15.046875 10.863281 -14.726562 11.875 -14.09375 C 12.882812 -13.46875 13.644531 -12.582031 14.15625 -11.4375 C 14.675781 -10.300781 14.9375 -8.960938 14.9375 -7.421875 Z M 3.234375 -7.421875 C 3.234375 -5.554688 3.628906 -4.085938 4.421875 -3.015625 C 5.210938 -1.941406 6.441406 -1.40625 8.109375 -1.40625 C 9.785156 -1.40625 11.015625 -1.941406 11.796875 -3.015625 C 12.578125 -4.085938 12.96875 -5.554688 12.96875 -7.421875 C 12.96875 -9.296875 12.578125 -10.757812 11.796875 -11.8125 C 11.023438 -12.875 9.804688 -13.40625 8.140625 -13.40625 C 6.453125 -13.40625 5.210938 -12.875 4.421875 -11.8125 C 3.628906 -10.757812 3.234375 -9.296875 3.234375 -7.421875 Z M 11.03125 -19.578125 L 11.03125 -19.375 C 10.851562 -19.125 10.59375 -18.800781 10.25 -18.40625 C 9.914062 -18.007812 9.550781 -17.613281 9.15625 -17.21875 C 8.757812 -16.832031 8.394531 -16.515625 8.0625 -16.265625 L 6.859375 -16.265625 L 6.859375 -16.515625 C 7.054688 -16.765625 7.28125 -17.070312 7.53125 -17.4375 C 7.78125 -17.800781 8.019531 -18.171875 8.25 -18.546875 C 8.488281 -18.929688 8.679688 -19.273438 8.828125 -19.578125 Z M 11.03125 -19.578125 "/></g></g></g><g fill="#000000" fill-opacity="1"><g transform="translate(304.095182, 116.552698)"><g><path d="M 13.75 0 L 11.578125 0 L 3.65625 -12.3125 L 3.5625 -12.3125 C 3.59375 -11.820312 3.628906 -11.21875 3.671875 -10.5 C 3.710938 -9.78125 3.734375 -9.039062 3.734375 -8.28125 L 3.734375 0 L 2.015625 0 L 2.015625 -14.8125 L 4.171875 -14.8125 L 12.078125 -2.546875 L 12.15625 -2.546875 C 12.144531 -2.773438 12.128906 -3.109375 12.109375 -3.546875 C 12.085938 -3.992188 12.066406 -4.472656 12.046875 -4.984375 C 12.023438 -5.503906 12.015625 -5.992188 12.015625 -6.453125 L 12.015625 -14.8125 L 13.75 -14.8125 Z M 13.75 0 "/></g></g></g></svg>